<svg
  width="712"
  height="400"
  viewBox="0 0 712 400"
  fill="none"
  xmlns="http://www.w3.org/2000/svg"
>
  <path
    opacity=".2"
    d="M564.4 395.2H146.7c-2 0-3.8-1.7-3.8-3.8v-5c0-2 1.7-3.8 3.8-3.8h417.7c2.1 0 3.8 1.7 3.8 3.8v5a3.8 3.8 0 01-3.8 3.8z"
    fill="#000"
  />
  <g opacity=".5" fill="#CCE0FF">
    <path
      opacity=".5"
      d="M360 36.3h134.3v60.2H360V36.3zm130 4.3H364.3v51.6H490V40.6zM199.3 70.1h-31.7V38.4h31.7v31.7z"
    />
    <path
      opacity=".5"
      d="M146.1 16.9h74.7v74.7h-74.7V16.9zm70.4 4.3h-66v66.1h66v-66zm13.7 41.4h63.5V126h-63.5V62.6zm59.2 4.3h-54.9v54.9h54.9V66.9zm163.2 54.5h63.5V185h-63.5v-63.5zm59.2 4.4H457v54.8h54.8v-54.8zM479.5 75L464 59.5 448.5 75h31zm-34.7-15.5L429.3 75l-15.5-15.5h31zM410.1 75l-15.5-15.5L379.1 75h31z"
    />
  </g>
  <path
    d="M500.1 317.2S483 328 486.8 346c0 0 16.7-10.2 13.3-29z"
    fill="#1F589A"
  />
  <path
    d="M485 326.4a30.4 30.4 0 016.6-33.3s8.5 17.9-6.7 33.3z"
    fill="#152E59"
  />
  <path
    d="M481.6 364.2C468 338.2 490 322 490 322s14.1 23.3-8.4 42z"
    fill="#152E59"
  />
  <path
    d="M481.6 364.2l-.3-.4a32.4 32.4 0 008.2-41.3l.5-.4s14.1 23.3-8.4 42z"
    fill="#1D5394"
  />
  <path d="M480.4 344.8v-51s17.8 23.8 0 51z" fill="#3485F4" />
  <path d="M480.4 293.8v51c-17.7-27.2 0-51 0-51z" fill="#1D5394" />
  <path d="M479.8 355.2l-14.4-33.5s18.3 10.6 14.4 33.5z" fill="#3485F4" />
  <path
    d="M465.4 321.7l14.4 33.5c-19.3-12.8-14.4-33.5-14.4-33.5z"
    fill="#1D5394"
  />
  <path
    d="M471 359.6h24.5v6.1H471v-6.1zm22.8 6.1v.8L492 383h-17.4l-2.1-16.6v-.8h21.2z"
    fill="#4E86C5"
  />
  <path
    opacity=".2"
    d="M488.9 359.6h1.9v6.1h-2v-6.1zm1 6.1v.8L489 383h-1.7l1-16.6v-.8h1.6z"
    fill="#F2F5F7"
  />
  <path opacity=".2" d="M493.9 365.7v1h-17l-.2-1H494z" fill="#000" />
  <path
    opacity=".3"
    d="M471 359.6h4.3v6.1H471v-6.1zM479 383h-4.2l-2.1-16.6-.1-.8h4.2l.1.8 2 16.6z"
    fill="#000"
  />
  <path d="M425.4 382.6l-2.8-.5 24-123.4 2.8.6-24 123.3z" fill="#D38552" />
  <path
    opacity=".3"
    d="M424.3 382.4l1.2.2 23.8-123.4-2.8-.5v.2l1.5.3-23.7 123.2z"
    fill="#000"
  />
  <path d="M484.2 383.1h-2.9l-23.8-123.9 2.8-.5 23.9 124.4z" fill="#D38552" />
  <path
    opacity=".3"
    d="M457.6 259.2l23.7 124h1.4l-23.7-124 1.3-.2v-.3l-2.7.5z"
    fill="#000"
  />
  <path d="M482 263.5h-58.5v-12H482v12z" fill="#4E86C5" />
  <path opacity=".3" d="M423.5 251.6v12H482v-2h-51v-10h-7.5z" fill="#000" />
  <path opacity=".3" d="M431 251.6h51v.8h-51v-.8z" fill="#fff" />
  <path d="M474.5 338h-42.1v-2.5h42v2.5z" fill="#D38552" />
  <path opacity=".3" d="M433 337.4l-.2.7h41.3v-.7h-41.2z" fill="#000" />
  <path d="M472.1 233.3h-18.6l2.6 18.3h13.3l2.7-18.3z" fill="#FFAD01" />
  <path
    opacity=".3"
    d="M466.4 251.6h1.7l2.7-18.3h-1.7l-2.7 18.3zm-1.7 0h1l2.7-18.3h-1l-2.7 18.3z"
    fill="#fff"
  />
  <path
    opacity=".3"
    d="M453.5 233.3l2.6 18.3h1.8l-2.7-18.3h-1.7z"
    fill="#000"
  />
  <path d="M452.7 259.7a2.2 2.2 0 100-4.3 2.2 2.2 0 000 4.3z" fill="#FFAD01" />
  <path
    opacity=".9"
    d="M454.3 257.6l.1-.2c0-.7-.6-1.4-1.4-1.4l-.1.1.1.2c.7 0 1.2.5 1.2 1.2h.1z"
    fill="#fff"
  />
  <path
    opacity=".3"
    d="M450.6 257.6a2.2 2.2 0 002.1 2.1h.4c-1-.2-1.8-1-1.8-2.1s.8-2 1.8-2.2h-.4a2.2 2.2 0 00-2.1 2.2z"
    fill="#000"
  />
  <path
    d="M267 101.2l7.7-.1-8-46.7a3.9 3.9 0 10-7.6 1.3l7.8 45.5z"
    fill="#D38552"
  />
  <path
    opacity=".3"
    d="M269.3 101.1H267L259 55.8V55a3.9 3.9 0 015-3.7 3.8 3.8 0 00-2.7 4.4l7.9 45.4z"
    fill="#000"
  />
  <path d="M311.8 298.2l-6.4 1-16.5-95.5 6.4-1.1 16.5 95.6z" fill="#D38552" />
  <path
    d="M222.2 383.7H220c-1.2 0-2-1.4-1.8-2.8L261 206.4c.3-1.2 1.4-2 2.5-1.7l2.4.6c1.1.2 1.7 1.4 1.4 2.7l-43 173.9c-.2 1-1.1 1.8-2 1.8z"
    fill="#C6784E"
  />
  <path
    opacity=".3"
    d="M267.3 208l-43 173.9c-.2 1-1 1.8-2 1.8h-2c.8-.2 1.5-.9 1.7-1.8L265 208c.3-1.3-.3-2.5-1.4-2.7l-1.5-.4a1.9 1.9 0 011.4-.2l2.4.6c1.1.2 1.7 1.4 1.4 2.7z"
    fill="#000"
  />
  <path d="M271.4 309.6l74.3-10.7-.8-5.8-74.3 10.2.8 6.3z" fill="#D38552" />
  <path
    opacity=".3"
    d="M345.7 294.1L271.4 305l-.8-6.3h.2l.6 4.5 33.9-4.9 1.4-.2 38.9-5 .1 1.1z"
    fill="#000"
  />
  <path
    opacity=".3"
    d="M306.7 298l-1.4.2-16.3-94.5 6.3-1.1v.3l-5 .8 16.4 94.3z"
    fill="#000"
  />
  <path d="M368.8 382.6h6.9l-60-178.7-6.1 2.1 59.2 176.6z" fill="#D38552" />
  <path
    opacity=".3"
    d="M370.6 382.6h-1.8L309.6 206l6.1-2 .2.5-3.8 1.6 58.5 176.5z"
    fill="#000"
  />
  <path d="M275 382.6h-6.4l-4-175.8 6.5-.1 3.9 176z" fill="#D38552" />
  <path opacity=".3" d="M275 382.6h-.5l-4-176h.6l3.9 176z" fill="#000" />
  <path d="M330 207.9h-86.3v-6.5H330v6.5z" fill="#824E37" />
  <path opacity=".3" d="M243.7 201.4H330v2h-86.3v-2z" fill="#000" />
  <path
    d="M243.7 201.4v.6h-10.3L217.6 88.7l2-1.2 15.9 113.9h8.2z"
    fill="#B1B1B2"
  />
  <path d="M236 201.4h107.7l-18-103.3-106.1-10.7 16.5 114z" fill="#EAEAEA" />
  <path
    d="M258 113.1l-.3-2.2 39.2 3.2.7 1.9-39.6-2.9zm-1.2-9.4l-.4-2.3 51 4.7.8 2-51.4-4.4zm.5 3.6l-.3-2.2 35.8 3.3.7 1.9-36.2-3zm-1.5-9l-.3-2.2 22 2 .6 2-22.3-1.8z"
    fill="#C4C4C6"
  />
  <path d="M219.6 87.5l15.9 114H257L238.1 89.4l-18.5-2z" fill="#CCE0FF" />
  <path d="M226 105.1l14.4 96.4h11.7l-15.7-95.3-10.4-1z" fill="#C4C4C6" />
  <path d="M259.3 117.1l10 62.5 53 1-10.6-59.2-52.4-4.3z" fill="#434344" />
  <path
    d="M276 121.8l-13.9-1c-.5 0-1-.5-.9-1 0-.5.5-.9 1-.8l14 1c.5 0 .9.4.8 1 0 .4-.5.8-1 .8zm22 5l-5-.3c-.6 0-1-.5-.9-1 0-.5.5-1 1-.9l5 .4c.6 0 1 .5 1 1 0 .6-.5 1-1.1.9zm10 4.5l-5-.4c-.6 0-1-.5-1-1 .1-.5.6-.9 1.1-.8l5 .4c.6 0 1 .5.9 1 0 .5-.5.9-1 .8z"
    fill="#C2FFC2"
  />
  <path
    d="M297.7 123.5l-9.3-.6c-.5 0-1-.5-.9-1 0-.6.5-1 1-.9l9.3.7c.6 0 1 .4 1 1-.1.5-.6.9-1.1.8z"
    fill="#0FF"
  />
  <path
    d="M299.3 130.6l-9.2-.6c-.6 0-1-.5-1-1 0-.6.6-1 1-.9l9.3.7c.6 0 1 .5 1 1s-.5.9-1 .8z"
    fill="#C2FFC2"
  />
  <path
    d="M272.3 125l-9.3-.6c-.6 0-1-.5-1-1s.5-.9 1-.8l9.4.5c.5 0 1 .5.9 1 0 .5-.5.9-1 .8z"
    fill="#FE168D"
  />
  <path
    d="M286.1 129.8l-4.9-.3c-.5 0-1-.5-.9-1 0-.5.5-.9 1-.8l5 .3c.5 0 1 .4.9 1 0 .5-.5.9-1 .8zm-13.7 7.2l-5-.2c-.5 0-1-.5-1-1a1 1 0 011-.9l5 .2c.6 0 1 .5 1 1s-.5.9-1 .9z"
    fill="#FFE068"
  />
  <path
    d="M283.2 137.5l-6.3-.4c-.7 0-1.2-.4-1.2-1 0-.5.6-.8 1.3-.8l6.3.3c.7 0 1.2.5 1.2 1s-.6 1-1.3.9zm-6.6-8.4l-13-.8c-.6 0-1-.5-1-1 .1-.6.5-1 1.1-.9l13 .8c.6 0 1 .5 1 1-.1.5-.6 1-1.1.9z"
    fill="#0FF"
  />
  <path
    d="M307.2 135.1l-5-.3c-.6 0-1-.5-1-1s.5-1 1-.9l5.1.4c.6 0 1 .4 1 1-.1.5-.6.8-1.1.8z"
    fill="#FFE068"
  />
  <path
    d="M298.5 134.6l-9.3-.6c-.5 0-1-.4-.9-1 0-.4.5-.8 1-.8l9.3.5c.6 0 1 .5 1 1s-.5.9-1 .9z"
    fill="#0FF"
  />
  <path
    d="M285.3 134l-4.9-.3c-.5 0-1-.5-1-1 .1-.5.6-.9 1.1-.9l5 .3c.5 0 1 .4.9 1a1 1 0 01-.7.8 1 1 0 01-.4 0z"
    fill="#FE168D"
  />
  <path
    d="M275.2 133.1l-10.6-.5c-.5 0-.8-.4-.7-1 0-.5.4-.8.8-.8l10.6.5c.5 0 .8.4.8 1 0 .5-.4.9-.9.8zm14-7l-13-.9c-.5 0-1-.5-.9-1 0-.5.5-.9 1-.8l13 .9c.6 0 1 .4 1 1a1 1 0 01-1 .8z"
    fill="#fff"
  />
  <path
    d="M284.6 122.6l-5-.4c-.6 0-1-.5-1-1 .1-.5.6-.9 1.1-.8l5 .3c.6 0 1 .5 1 1a1 1 0 01-1 .9z"
    fill="#FFE068"
  />
  <path
    opacity=".1"
    d="M343.7 201.4h-69.8c-5.2-8.3 16.7-25.5 9.5-59.3-4.5-21.2-41.8-44.5-55.8-54l98.2 10 17.9 103.3z"
    fill="#fff"
  />
  <path d="M264.4 328.8l6.6 53.8h33.8l7.6-53.8h-48z" fill="#6A7382" />
  <path
    opacity=".3"
    d="M296 382.6h3.8l7.5-53.8h-3.7l-7.5 53.8zm-3.2 0h1.3l7.6-53.8h-1.4l-7.5 53.8z"
    fill="#fff"
  />
  <path
    opacity=".3"
    d="M264.5 328.8l6.6 53.8h6.3l-6.6-53.8h-6.3z"
    fill="#000"
  />
  <path
    d="M283.5 334.8c0 2.8 1.5 5 3.2 5 1.8 0 3.3-2.3 3.3-5v-.3c1-1 1.8 1 2.3 2.7a9 9 0 01.1 3.2v.6c0 2.8 1.5 5 3.2 5 1.6 0 3-1.8 3.2-4.1.3-1.5.8-4.2 2.1-5.2.5-.3.9 0 1.2.5.6.9.7 2 .6 3.1v.7c0 2.2 1 4 2.4 4 1.5 0 2.6-1.8 2.6-4 0-.4 0-.9-.2-1.3 0-1 1-4.6.8-6.8 0-1.5.3-3.1.5-4h-25v2.4l-.1 2.6-.2.9z"
    fill="#FFAD01"
  />
  <path
    opacity=".8"
    d="M303.8 344.4l.2.1.3.2h.1l.3.2H305.6l.1-.1.3-.2h.2v-.1l.4-.4.1-.2a5 5 0 00.9-2.9c0-.4 0-.9-.2-1.3-.1-1 1-4.6.8-6.8 0-1.5.3-3.2.5-4.2h-.6c-.2 1-.5 2.4-.4 3.8.2 2.2-.9 5.8-.8 6.8l.2 1.3c0 1.7-.7 3-1.6 3.7l-1 .2a1 1 0 01-.7 0zm2.4.1l.4-.3-.4.3zm-12.2 1c.4.3 1 .5 1.6.5 1.5 0 2.8-1.8 3.1-4.1.3-1.5.8-4.2 2.2-5.2l.2-.3c-.2-.2-.5-.3-.7 0-1.4 1-1.9 3.7-2.2 5.1-.2 2.4-1.6 4.2-3.1 4.2-.4 0-.8-.1-1.1-.3zm-8.8-6.3l1 .5c2.2.8 4-2.5 3.7-5.2.2-.2.4-.3.7-.2-.3-.4-.7-.6-1.2-.2.2 2.9-1.5 6.3-4.2 5zm4.7-4.7z"
    fill="#fff"
  />
  <path
    opacity=".3"
    d="M304.2 344.7l-.3-.1.3.1zm-3.3-8c.4-.3.8 0 1.1.5.6.9.7 2 .6 3.1v.7c0 1.5.5 2.7 1.2 3.4l.8.2a2 2 0 00.9-.3c-1.3-.1-2.3-1.8-2.3-3.9v-.7a5 5 0 00-.5-3.1c-.4-.6-.8-.8-1.2-.5l-.4.3-.2.3zm-10.4-2.4zm0 0c.8 0 1.4 1.6 1.7 3a9 9 0 01.2 3v.7c0 2.8 1.3 5 3.1 5 .8 0 1.5-.4 2-1.1-.4.3-.9.5-1.4.5-1.8 0-3.2-2.3-3.2-5v-.7c.1-1 .1-2.1-.1-3.1-.4-1.5-1-3.5-2.4-2.6l.2.3zm-.6.2zm-3.8 5.2l-.2-.1.2.1zM285.9 339.6c-.3 0-.5-.2-.7-.4.3.2.7.3 1 .3.4 0 .7-.1 1-.3-1.7 0-3-2.3-3-5v-.9l.1-2.5v-2h-.6v2.6l-.1 2.5v1c0 2.2 1 4.1 2.3 4.7z"
    fill="#000"
  />
  <path
    opacity=".4"
    d="M296.2 343c1-.3 1.2-2.1 1.5-4.4v-.5c.4-2.3 2.9-5.3 2.9-5.3v-.3h-.3c-.1.2-2.6 3.2-2.9 5.6v.5c-.3 2-.5 3.8-1.2 4l-.2.2.2.1z"
    fill="#fff"
  />
  <path
    d="M451 240.8c0 2.2-.9 3.6-1.9 3.6v-8s1.8 2.2 1.8 4.4z"
    fill="#C2FFC2"
  />
  <path
    d="M449.1 236.4v8c-1 0-1.7-1.4-1.7-3.6s1.7-4.4 1.7-4.4z"
    fill="#80A880"
  />
  <path
    d="M447.5 240.7c1.6 1.6 2 3.1 1.4 3.8l-5.7-5.6s2.8.2 4.3 1.8z"
    fill="#C2FFC2"
  />
  <path
    d="M443.2 238.9l5.7 5.6c-.8.7-2.3.2-3.9-1.4-1.5-1.5-1.8-4.2-1.8-4.2z"
    fill="#80A880"
  />
  <path
    d="M450.8 240.7c-1.5 1.6-2 3.1-1.3 3.8l5.6-5.6s-2.7.2-4.3 1.8z"
    fill="#C2FFC2"
  />
  <path
    d="M455.1 238.9l-5.6 5.6c.7.7 2.2.2 3.8-1.4 1.6-1.5 1.8-4.2 1.8-4.2z"
    fill="#80A880"
  />
  <path d="M449.1 244v6.9H446a.5.5 0 01-.5-.5V244h3.7z" fill="#8FB4C9" />
  <path d="M449.1 244h3.8v6.4c0 .2-.3.5-.5.5H449v-7z" fill="#A4CDE7" />
  <path d="M446.3 250.9h2.9v.7h-2.9v-.7z" fill="#528AA8" />
  <path d="M449.1 250.9h3v.7h-3v-.7z" fill="#79A3BA" />
  <path d="M383.3 371l-4.3 19.1-9-1.4 4.5-17.6h8.8z" fill="#F6B58F" />
  <path
    d="M380.9 390.5c0 .6-.4 1.1-1 1.1l-21.1-.3c-2.7 0-3.3-3.2-.9-4l3.1-1 .5-.1 1-.3.4-.2 4-1.2.6-.2c2.7-.6 5.5-.4 8 .7 2.4.9 4.8-.8 4.8-.8l.6 6.3z"
    fill="#434344"
  />
  <path
    opacity=".3"
    d="M380.9 390.6a1 1 0 01-.6 1 1 1 0 01-.4 0l-21.1-.3c-1.7 0-2.6-1.2-2.3-2.3.2.8 1 1.5 2.3 1.6l20.6.3c.5 0 .9-.5.9-1l-.6-5.4.6-.3.6 5.7v.7z"
    fill="#000"
  />
  <path
    d="M364.4 388.5c-1.5 0-2.7-1-3-2.4l-.4.2a3.3 3.3 0 003.4 2.6v-.4zm1.5-1.2a3 3 0 01-3-1.6l-.4.1a3.4 3.4 0 003.5 2v-.5z"
    fill="#EFEFEF"
  />
  <path d="M440.4 367l-4.3 19.1-9-1.4 4.5-17.7h8.8z" fill="#F6B58F" />
  <path
    d="M438 386.5c0 .6-.4 1-1 1l-21.1-.3c-2.6 0-3.3-3.2-.9-4l3.1-1h.5l1-.4.4-.1 4-1.2.6-.2c2.7-.7 5.5-.4 8 .7 2.4.9 4.8-.9 4.8-.9l.6 6.4z"
    fill="#363637"
  />
  <path
    opacity=".3"
    d="M438 386.6a1 1 0 01-.3.7 1 1 0 01-.7.3l-21.1-.3c-1.7 0-2.6-1.3-2.3-2.3.2.8 1 1.5 2.3 1.5l20.7.4c.4-.1.8-.5.8-1l-.5-5.4.5-.3.6 5.6v.8z"
    fill="#000"
  />
  <path
    d="M421.5 384.4c-1.5 0-2.7-1-3-2.3l-.4.1a3.3 3.3 0 003.4 2.7v-.5zm1.5-1.1a3 3 0 01-3-1.6h-.4a3.4 3.4 0 003.5 2v-.4z"
    fill="#EFEFEF"
  />
  <path
    d="M412.8 194.3L438 198c14.8 26.6 8 41.9 4.9 88.5-.2 3.9 2 36.9 2.6 41.7a156 156 0 01-5.7 46.6l-10.6-.4c-3.3-13.3-15.5-119-17.9-134.7l1.5-45.4z"
    fill="#363637"
  />
  <path
    opacity=".3"
    d="M445.5 328.2a156 156 0 01-5.7 46.5l-3.4-.1c5.3-14.4 6.2-42.6 5.6-46.5-.7-4.8-2.7-37.8-2.6-41.7 3-46.6 9.9-61.9-4.9-88.5l-21.8-3.2v-.4l25.3 3.6c14.7 26.6 8 41.9 4.8 88.5.6 14 1.5 27.9 2.7 41.8z"
    fill="#000"
  />
  <path
    d="M436.8 228.7a51.3 51.3 0 01-17.1 21.8c-.7.5-1.2 1.2-1.5 2l-3 13.6c-4.2 11.5-8 47.8-12 61.7-5 16.9-11.6 33.2-20 48.7h-10c.7-10.2 7.8-78.4 15.4-119.3 5.8-31.2 12.1-58.6 16.4-62.7l15.5 2.6 16.2 2.7s3.4 17.5 0 28.9z"
    fill="#434344"
  />
  <path
    opacity=".8"
    d="M411.7 196.3c-3.9 6.1-9.8 32-15.5 61.4A1833.7 1833.7 0 00379 376.5H374c.9-10.2 9.2-78.3 17-119 6-31 12.4-58.1 16.2-62.2l4.5 1z"
    fill="#fff"
  />
  <path
    d="M336.4 149l9.3-3.6 1 .2 1 2.1-.7 1.2-9.7 2.5-1-2.4z"
    fill="#CAE4D9"
  />
  <path
    opacity=".3"
    d="M336.4 149l1 2.4 9.6-2.5.6-1.2-.2-.6-.6 1-9.7 2.5-.7-1.7z"
    fill="#fff"
  />
  <path
    opacity=".2"
    d="M336.4 149l.2.6 9.3-3.5 1 .1.7 1.7v-.2l-.9-2.1-1-.2-9.3 3.6z"
    fill="#000"
  />
  <path
    d="M347 149l12.3-3.8h.3l12-4.6c.8-.3 1.3-1 1-1.7-.3-.7-1.2-1-2-.8l-12.7 3.6-12.2 3.8h.1a4 4 0 011.2 3.4z"
    fill="#AB1A29"
  />
  <path
    opacity=".1"
    d="M347 149l12.3-3.8h.3l12-4.6c.8-.3 1.3-1 1-1.7l-.2-.4a1.6 1.6 0 01-1.1 1l-12 4.6h-.3l-12 3.8v1z"
    fill="#fff"
  />
  <path
    opacity=".2"
    d="M345.7 145.4v.2l.6.5 11.7-3.7 12.7-3.5h.1c.8-.2 1.5 0 1.8.5v-.6c-.3-.6-1.2-1-2-.8l-12.8 3.6-12.1 3.8z"
    fill="#000"
  />
  <path
    d="M320.2 154.8h1.2c2.3.2 7.7.4 10.1-.4 3.1-1 3.6-2.5 3.6-2.5l-.8-2.3c-1.6-.7-7 .6-9.2 2.8-2.2 2.3-4.9 2.4-4.9 2.4z"
    fill="#6F4127"
  />
  <path
    opacity=".1"
    d="M320.2 154.8h1.2c2.3.2 7.7.4 10.1-.4 3.1-1 3.6-2.5 3.6-2.5l-.1-.5c-.2.3-1 1.6-3.6 2.5-3 .6-6.2.8-9.3.5a6 6 0 01-1.9.4z"
    fill="#fff"
  />
  <path
    d="M334.3 149.9v.2l.8 1.8c.1.1.3.2.5.1l1.6-.3.2-.3-.2-.4-.8-2c0-.1-.2-.2-.3-.1l-1.6.6c-.2 0-.3.2-.2.4z"
    fill="#22292B"
  />
  <path
    opacity=".1"
    d="M334.3 149.9v.2c.3.3.6.5 1 .5.8 0 1.1 0 1.6.3l.3.2-.8-2.1-.4-.1-1.5.6c-.2 0-.3.2-.2.4zm-14 4.9h1c1-.2 2-.6 2.6-.9 1-.6 5.9-1.9 7.7-2.5 1-.3 2.3-1.2 2.7-1.8-1.6-.7-7 .7-9.2 2.9-2.2 2.2-4.9 2.3-4.9 2.3z"
    fill="#000"
  />
  <path
    d="M456.4 144.4c-.7-5.2-3.3-10-7.4-13.2-1.6-1.4-2.2-1.3-3.7-1.2-4.2.3-3.4 8-2.3 13.3.2 1 .6 2 1 2.8 0 0 4.5 35 3.4 37.5a44.9 44.9 0 01-6.2 7.8l5.5 2.7c.4 0 4.8 2.9 6.8-.4s4.5-10.7 5-25.4c.2-9.1-1.9-18-2-23.5l-.1-.4z"
    fill="#AA1427"
  />
  <path d="M423.9 116.1h16.8v25.3H424v-25.3z" fill="#E7A584" />
  <path
    d="M348.3 155.6c.8.7 1.6 1 2.1 1a3 3 0 011.8 1l10.1 11.5 5.6-9-11.3-6.5c-.5-1.5-.7-4.8-.9-6-.2-1.5-4.4-5.5-6.5-5.5-2-.1-4.4 2.8-4.7 3.3-.3.5 2.8 0 2.8 1 0 1.2-.9 2.8-1.7 3.4-.7.6 0 3.7 2.7 5.8z"
    fill="#F6B58F"
  />
  <path
    d="M363 168l-.7 1.1-10-11.4a3 3 0 00-1.9-1.1c-.5 0-1.3-.3-2.1-1-2.6-2.1-3.4-5.2-2.7-5.9.8-.6 1.7-2.2 1.7-3.3 0-1.1-3.1-.5-2.8-1 .2-.5 2-2.7 3.8-3.3-1 .8-2 1.7-2.7 2.7-.3.5 2.8 0 2.8 1 0 1.2-.9 2.8-1.7 3.4-.7.6 0 3.7 2.7 5.9.8.6 1.6.9 2.1 1a3 3 0 011.8 1l9.7 11z"
    fill="#DDA285"
  />
  <path
    d="M448.6 185.6c-2.3 4.5-6 21.1-6.5 21.1s-15.2-.1-22-.7c-6.8-.6-19-3.3-19-3.3 0-1 2.6-14.6 5.4-29l.8-3.8c3.1-16.3 6.5-32.7 6.7-33 .6-.5 7.4-1.7 10.2-2.2 0 0 6.1 3 11.5 2.5l14.2-1.5c1.5 5.7 3.5 14.8 3.8 23.6a67.6 67.6 0 01-5.1 26.3z"
    fill="#E1143D"
  />
  <path
    opacity=".3"
    d="M448.6 185.6c-2.1 4.2-5.4 18.6-6.3 20.8v.2l-.1.1H438c-5 0-13.3-.3-17.9-.7-6.8-.5-19-3.3-19-3.3 0-1 2.6-14.5 5.4-29l5.2-4.3-.1.5-.8 3.8a823 823 0 00-5.4 29s11 2.4 17.8 3c3.5.3 9.9.4 15 .6 1-3.3 4-16.7 6-20.7 1-2 5.5-14 5.1-26.3-.2-8.6-2.2-17.3-3.7-23.1l4.2-.5c1.6 5.8 3.6 14.8 3.9 23.6a67 67 0 01-5.1 26.3zm-9.8 21l1.6.1h-1.6z"
    fill="#000"
  />
  <path
    d="M360.7 168.1s5.8 4.7 13.7 9.2c8 4.5 16-.5 16-.5l24-13.6c1.8-1 3.3-2 4.7-3.5 2.5-2.7 4-6 4-10.5 0-6.9-3.8-12.5-8.5-12.5-2 0-3.8.8-5.3 2.4l-3.3 3.3-23.3 21-.6.5c-.7.8-1.7 1.3-2.8 1.4-1.5.1-4-1.4-6-2.7a57.4 57.4 0 00-7-4c-1.3 1.5-5.6 9.5-5.6 9.5z"
    fill="#E1143D"
  />
  <path
    opacity=".3"
    d="M423.1 149.1v1c-.3-6.5-4-11.7-8.5-11.7-2.4 0-3.9 1.3-6.3 3.6l-25.7 23-.5.6c-.7.8-1.7 1.3-2.8 1.4-1.7 0-4.6-1.7-6.5-3a37 37 0 00-5-3l-1.4-.8a85.1 85.1 0 00-5 8.4l-.7-.5s4.3-8 5.7-9.6c2.4 1.2 4.7 2.5 7 4 1.9 1.4 4.4 2.8 5.9 2.7 1 0 2.1-.5 2.8-1.3l.6-.6 19.7-17.8 6.9-6.5a7.3 7.3 0 015.3-2.3c4.7 0 8.5 5.6 8.5 12.4z"
    fill="#fff"
  />
  <path
    opacity=".3"
    d="M424.8 150.9c0 6-2.7 9.8-6.8 13l-4.1 3.5-7.4 6.2 1.3-6.7 4.5-2.5 3.4-2a15.2 15.2 0 007.4-13.3c0-3.7-1.1-7-2.9-9.3 2.7 2 4.6 6.3 4.6 11z"
    fill="#000"
  />
  <path
    d="M418.8 94.7l7.2 11 8.5 7.5s-1.2 8.1-.8 9.1c.4 1-.8 12.5-2.7 17.8-2 5.3-.9 11.5-.2 17a49 49 0 01-.9 18.2c-1.5 3.8-7.6 15.4-3.6 17.4 4 2 16.2-1.3 20-1.1 3.7.2 7.6-4.3 8.3-19.2.6-14.7 4.1-58.3-.8-72.7-4-11.5-12.6-14.6-20.2-14a17.8 17.8 0 00-14.8 9z"
    fill="#0E151F"
  />
  <path
    opacity=".2"
    d="M439.5 105.8l3.6 4 4 12.6c.5 1-.7 12.5-2.6 17.7-2 5.3-.9 11.6-.2 17a49 49 0 01-.9 18.2c-1.4 3.8-7.5 14.1-3.5 16.1.7.4 1.5.6 2.3.6-2.5.2-4.8.1-6-.6-4-2 2-12.3 3.5-16.1 1.4-3.9 1.6-12.7.9-18.2-.7-5.4-1.8-11.7.1-17 2-5.3 3.1-16.7 2.7-17.7l-4-12.6-1.8-1.9 1.9-2z"
    fill="#353535"
  />
  <path
    opacity=".2"
    d="M434.7 140.1c-2 5.3-.8 11.6-.1 17a49 49 0 01-1 18.2c-1.4 3.8-7.6 15.5-3.6 17.5.7.3 1.5.5 2.3.5-2.6.2-4.7.1-6-.5-4-2 2.1-13.7 3.6-17.5a48 48 0 00.9-18.2c-.7-5.4-1.8-11.7.1-17 2-5.3 3.1-16.7 2.7-17.7-.4-1 .8-9.1.8-9.1l-8.5-7.5-7.1-11a17.8 17.8 0 0114.7-9.1h3.7c-2.8.2-5.2 1-7.3 2a9 9 0 00-3.5 13l3.3 5 8.6 7.5s-1.3 8.1-.9 9.1c0 6-1 12-2.7 17.8z"
    fill="#353535"
  />
  <path
    d="M439.1 117.3c-4 4.1-9 7.3-12.6 7.3-1.5 0-3-.3-4.2-.8-4.3-1.7-6.7-6.2-6.7-12.7 0-5.3.8-11.8 3.4-16 2 2.9 9 12.6 13.4 12.6 5 0 6.7-6.7 10.1-3.4 3.3 3.3-1.5 11-3.2 12.8l-.2.2z"
    fill="#F6B58F"
  />
  <path
    opacity=".2"
    d="M439.3 117.1l-.2.2c-4 4.1-9 7.3-12.6 7.3l-1.3-.1c3.5-.5 8-3.4 11.8-7.3v-.1c1.9-1.8 6.6-9.5 3.3-12.8l-.7-.6c.9-.5 1.8-.5 3 .6 3.2 3.3-1.5 11-3.3 12.8z"
    fill="#353535"
  />
  <path
    d="M343.7 201.5H235.4l-15.8-114L326 98l17.8 103.4zm-108.2 0h108.1L325.7 98.1l-106-10.6 15.8 113.8z"
    fill="#C1C1C1"
  />
  <g opacity=".2">
    <path
      opacity=".2"
      d="M325.2 40.9V26.3c3.7.5 7.2 2.2 10 5.1l3.2-4a20.2 20.2 0 00-13.2-6.2V15h-4v6.1c-3 .3-5.8 1.2-8.3 2.6a17 17 0 00-3 2.6c-1.7 2-2.6 4.6-2.6 7.2a9.7 9.7 0 004.3 8.5 22 22 0 005 2.4c1.4.6 3 1 4.5 1.5V62a18 18 0 01-8.1-3l-1.4-1-1.7-1.5-.6-.8-3.4 4.3c2 2.2 4.4 4 7 5a25 25 0 008.2 2v6h4.1v-6c10.4-.7 14.3-7 14.3-13 0-8.7-7.4-11.2-14.3-13.2zm-4-1l-4.7-1.8c-2.1-1.1-3.5-2.6-3.5-4.9 0-2.4 1.3-4.4 3.5-5.6 1.4-.8 3-1.3 4.6-1.4v13.6zm4 22.3V47c4.7 1.4 8.5 3.2 8.5 7.5 0 3.3-2.1 7-8.5 7.7z"
      fill="#FDAC29"
    />
    <path
      opacity=".1"
      d="M325.2 40.9V26.3c3.7.5 7.2 2.2 10 5.1l3.2-4a20.2 20.2 0 00-13.2-6.2V15h-2.6v58.1h2.6v-6c10.4-.7 14.3-7 14.3-13 0-8.7-7.4-11.2-14.3-13.2zm0 21.3V47c4.7 1.4 8.5 3.2 8.5 7.5 0 3.3-2.1 7-8.5 7.7z"
      fill="#000"
    />
    <path
      opacity=".2"
      d="M311.6 24.7v17.4l-1.7-1.4V26.3c.5-.6 1-1.1 1.7-1.6zm0 33.5v6.4l-1.7-1v-7c.5.6 1 1.1 1.7 1.6zm1.4-25c0 2.3 1.4 3.8 3.4 4.9v6.4c-1.2-.4-2.4-1-3.5-1.6V23.7c1-.7 2.2-1.2 3.5-1.6v5.5a6.5 6.5 0 00-3.4 5.6zm3.5 27.8v5.5a25 25 0 01-3.6-1.2v-6.1c1.1.7 2.3 1.4 3.6 1.8z"
      fill="#F2F5F7"
    />
  </g>
</svg>
